<?xml version="1.0" standalone="no"?>
<!DOCTYPE svg PUBLIC "-//W3C//DTD SVG 20010904//EN"
 "http://www.w3.org/TR/2001/REC-SVG-20010904/DTD/svg10.dtd">
<svg version="1.0" xmlns="http://www.w3.org/2000/svg"
 width="2000.000000pt" height="2000.000000pt" viewBox="0 0 2000.000000 2000.000000"
 preserveAspectRatio="xMidYMid meet">
<metadata>
Created by potrace 1.11, written by Peter Selinger 2001-2013
</metadata>
<g transform="translate(0.000000,2000.000000) scale(0.100000,-0.100000)"
fill="#000000" stroke="none">
<path d="M0 10000 l0 -10000 10000 0 10000 0 0 10000 0 10000 -10000 0 -10000
0 0 -10000z m14750 3390 c188 -27 333 -171 360 -358 14 -99 13 -5579 -1 -5697
-24 -200 -101 -357 -244 -500 -148 -147 -310 -224 -520 -245 -79 -8 -1321 -10
-4360 -8 l-4250 3 -100 27 c-359 99 -625 365 -723 723 l-27 100 -3 2480 c-2
1705 1 2501 8 2549 19 127 85 227 193 297 98 64 143 69 566 69 l371 0 0 84 c0
165 35 263 127 355 65 64 144 106 225 120 73 12 8294 13 8378 1z"/>
<path d="M7311 12258 c-61 -14 -133 -86 -149 -150 -17 -65 -17 -761 0 -826 17
-69 88 -136 159 -151 39 -8 937 -11 3279 -9 l3225 3 40 22 c46 24 75 54 101
103 18 33 19 64 19 445 0 381 -1 412 -19 445 -26 49 -55 79 -101 103 l-40 22
-3235 1 c-2086 1 -3251 -2 -3279 -8z"/>
<path d="M5730 9763 c0 -2092 1 -2220 18 -2252 27 -54 65 -76 127 -76 62 0
100 22 127 76 17 32 18 160 18 2252 l0 2217 -145 0 -145 0 0 -2217z"/>
<path d="M7290 9979 c-44 -18 -90 -59 -113 -102 -20 -37 -22 -56 -22 -172 0
-123 1 -132 27 -176 15 -25 46 -59 70 -75 l43 -29 1425 0 1425 0 43 29 c24 16
55 50 70 75 26 44 27 53 27 176 0 120 -2 133 -25 175 -14 24 -45 58 -68 75
l-44 30 -1416 2 c-918 1 -1426 -2 -1442 -8z"/>
<path d="M10975 9971 c-51 -23 -101 -79 -114 -128 -14 -51 -14 -226 0 -274 16
-52 61 -103 112 -128 43 -21 43 -21 1443 -21 1333 0 1401 1 1439 19 51 23 101
74 117 120 8 21 13 83 13 151 0 104 -3 121 -25 164 -15 28 -43 61 -68 80 l-44
31 -1416 2 c-1354 3 -1419 2 -1457 -16z"/>
<path d="M7306 8278 c-25 -7 -57 -28 -87 -58 -58 -58 -73 -115 -67 -251 6
-128 37 -186 123 -232 l40 -22 1405 0 1405 0 40 22 c86 46 117 104 123 232 6
136 -9 193 -67 251 -33 33 -60 50 -93 58 -62 16 -2763 15 -2822 0z"/>
<path d="M11000 8275 c-54 -17 -106 -64 -131 -120 -22 -47 -26 -223 -8 -290
17 -61 93 -130 158 -144 72 -15 2719 -16 2790 0 68 14 123 57 152 116 21 42
24 63 24 158 0 157 -28 219 -119 268 l-41 22 -1390 2 c-1168 1 -1397 0 -1435
-12z"/>
</g>
</svg>
