<?xml version="1.0" encoding="UTF-8"?>
<svg width="102px" height="28px" viewBox="0 0 102 28" version="1.1" xmlns="http://www.w3.org/2000/svg" xmlns:xlink="http://www.w3.org/1999/xlink">
    <!-- Generator: Sketch 53 (72520) - https://sketchapp.com -->
    <title>logo</title>
    <desc>Created with Sketch.</desc>
    <g id="Page-1" stroke="none" stroke-width="1" fill="none" fill-rule="evenodd">
        <g id="Apple-TV" transform="translate(-300.000000, -14.000000)" fill="#FFFFFF" fill-rule="nonzero">
            <g id="jumbotron">
                <g id="logo" transform="translate(300.000000, 14.000000)">
                    <path d="M8.52651283e-14,23.1957895 L10.6525091,10.64 L0.385745455,10.64 L0.385745455,6.57263158 L16.2606545,6.57263158 L16.2606545,10.64 L5.81585455,23.1957895 L16.6167273,23.1957895 L16.6167273,27.44 L8.52651283e-14,27.44 L8.52651283e-14,23.1957895 Z M6.37963636,-2.27373675e-13 L8.24901818,2.29894737 L10.0887273,-2.27373675e-13 L14.0945455,-2.27373675e-13 L10.5634909,4.24421053 L5.72683636,4.24421053 L2.2848,-2.27373675e-13 L6.37963636,-2.27373675e-13 Z M19.6433455,5.15789474 L24.0942545,5.15789474 L24.0942545,14.6484211 L24.1536,14.6484211 C24.6679298,13.9606983 25.3256687,13.4743874 26.1268364,13.1894737 C26.928004,12.90456 27.7934499,12.7621053 28.7232,12.7621053 C29.7518597,12.7621053 30.671705,12.9733312 31.4827636,13.3957895 C32.2938222,13.8182477 32.9812335,14.3831544 33.5450182,15.0905263 C34.1088028,15.7978983 34.5439985,16.6084165 34.8506182,17.5221053 C35.1572379,18.435794 35.3105455,19.3936792 35.3105455,20.3957895 C35.3105455,21.4764966 35.1424017,22.4687674 34.8061091,23.3726316 C34.4698165,24.2764957 33.9901122,25.0575406 33.3669818,25.7157895 C32.7438514,26.3740384 31.9970953,26.8849105 31.1266909,27.2484211 C30.2562866,27.6119316 29.2869872,27.7936842 28.2187636,27.7936842 C27.7044338,27.7936842 27.2197841,27.724913 26.7648,27.5873684 C26.3098159,27.4498239 25.8894565,27.2729835 25.5037091,27.0568421 C25.1179617,26.8407007 24.7816742,26.6000013 24.4948364,26.3347368 C24.2079986,26.0694724 23.9755645,25.8091241 23.7975273,25.5536842 L23.7381818,25.5536842 L23.7381818,27.44 L19.6433455,27.44 L19.6433455,5.15789474 Z M23.7381818,20.2778947 C23.7381818,21.3586019 24.0497423,22.2329791 24.6728727,22.9010526 C25.2960031,23.5691261 26.1713398,23.9031579 27.2989091,23.9031579 C28.4264784,23.9031579 29.3018151,23.5691261 29.9249455,22.9010526 C30.5480758,22.2329791 30.8596364,21.3586019 30.8596364,20.2778947 C30.8596364,19.1971876 30.5480758,18.3228104 29.9249455,17.6547368 C29.3018151,16.9866633 28.4264784,16.6526316 27.2989091,16.6526316 C26.1713398,16.6526316 25.2960031,16.9866633 24.6728727,17.6547368 C24.0497423,18.3228104 23.7381818,19.1971876 23.7381818,20.2778947 Z M37.9810909,5.15789474 L42.432,5.15789474 L42.432,27.44 L37.9810909,27.44 L37.9810909,5.15789474 Z M59.5234909,27.44 L55.2506182,27.44 L55.2506182,25.4947368 L55.1912727,25.4947368 C55.0330174,25.7698259 54.8302558,26.0449109 54.5829818,26.32 C54.3357079,26.5950891 54.0340381,26.8407007 53.6779636,27.0568421 C53.3218891,27.2729835 52.9163659,27.4498239 52.4613818,27.5873684 C52.0063977,27.724913 51.5118572,27.7936842 50.9777455,27.7936842 C49.8501762,27.7936842 48.9352762,27.6217561 48.2330182,27.2778947 C47.5307601,26.9340334 46.9867656,26.4575469 46.6010182,25.8484211 C46.2152708,25.2392952 45.9581097,24.5221094 45.8295273,23.6968421 C45.7009448,22.8715748 45.6366545,21.9775487 45.6366545,21.0147368 L45.6366545,13.1157895 L50.0875636,13.1157895 L50.0875636,20.1305263 C50.0875636,20.54316 50.1023999,20.9705241 50.1320727,21.4126316 C50.1617456,21.8547391 50.2507629,22.2624543 50.3991273,22.6357895 C50.5474917,23.0091247 50.7749803,23.313683 51.0816,23.5494737 C51.3882197,23.7852643 51.8283608,23.9031579 52.4020364,23.9031579 C52.975712,23.9031579 53.44058,23.800001 53.7966545,23.5936842 C54.1527291,23.3873674 54.4247263,23.1122824 54.6126545,22.7684211 C54.8005828,22.4245597 54.9242179,22.0364934 54.9835636,21.6042105 C55.0429094,21.1719277 55.0725818,20.7200024 55.0725818,20.2484211 L55.0725818,13.1157895 L59.5234909,13.1157895 L59.5234909,27.44 Z M62.6688,13.1157895 L66.9416727,13.1157895 L66.9416727,15.0610526 L67.0010182,15.0610526 C67.1394916,14.7859635 67.3373078,14.5108786 67.5944727,14.2357895 C67.8516376,13.9607004 68.1582528,13.7150888 68.5143273,13.4989474 C68.8704018,13.2828059 69.275925,13.1059656 69.7309091,12.9684211 C70.1858932,12.8308765 70.6804337,12.7621053 71.2145455,12.7621053 C72.3421147,12.7621053 73.2520693,12.9340334 73.9444364,13.2778947 C74.6368035,13.6217561 75.1758526,14.0982426 75.5616,14.7073684 C75.9473474,15.3164943 76.2094539,16.0336801 76.3479273,16.8589474 C76.4864007,17.6842147 76.5556364,18.5782408 76.5556364,19.5410526 L76.5556364,27.44 L72.1047273,27.44 L72.1047273,20.4252632 C72.1047273,20.0126295 72.0898911,19.5852654 72.0602182,19.1431579 C72.0305453,18.7010504 71.941528,18.2933352 71.7931636,17.92 C71.6447993,17.5466648 71.4173106,17.2421064 71.1106909,17.0063158 C70.8040712,16.7705251 70.3639301,16.6526316 69.7902545,16.6526316 C69.2165789,16.6526316 68.7517109,16.7557884 68.3956364,16.9621053 C68.0395619,17.1684221 67.7675646,17.4435071 67.5796364,17.7873684 C67.3917082,18.1312298 67.268073,18.5192961 67.2087273,18.9515789 C67.1493815,19.3838618 67.1197091,19.8357871 67.1197091,20.3073684 L67.1197091,27.44 L62.6688,27.44 L62.6688,13.1157895 Z M67.6834909,6.57263158 L69.5528727,8.87157895 L71.3925818,6.57263158 L75.3984,6.57263158 L71.8673455,10.8168421 L67.0306909,10.8168421 L63.5886545,6.57263158 L67.6834909,6.57263158 Z M79.7009455,5.15789474 L84.1518545,5.15789474 L84.1518545,18.7747368 L89.0775273,13.1157895 L94.5373091,13.1157895 L88.8104727,19.5705263 L94.6856727,27.44 L89.0775273,27.44 L84.2112,20.1894737 L84.1518545,20.1894737 L84.1518545,27.44 L79.7009455,27.44 L79.7009455,5.15789474 Z M96.288,24.9052632 C96.288,24.531928 96.3572357,24.1782473 96.4957091,23.8442105 C96.6341825,23.5101738 96.8270533,23.2203521 97.0743273,22.9747368 C97.3216012,22.7291216 97.6133801,22.5375445 97.9496727,22.4 C98.2859653,22.2624555 98.6420345,22.1936842 99.0178909,22.1936842 C99.3937473,22.1936842 99.7498165,22.2624555 100.086109,22.4 C100.422402,22.5375445 100.714181,22.7291216 100.961455,22.9747368 C101.208729,23.2203521 101.401599,23.5101738 101.540073,23.8442105 C101.678546,24.1782473 101.747782,24.531928 101.747782,24.9052632 C101.747782,25.2785984 101.678546,25.632279 101.540073,25.9663158 C101.401599,26.3003525 101.208729,26.5901742 100.961455,26.8357895 C100.714181,27.0814047 100.422402,27.2729818 100.086109,27.4105263 C99.7498165,27.5480709 99.3937473,27.6168421 99.0178909,27.6168421 C98.6420345,27.6168421 98.2859653,27.5480709 97.9496727,27.4105263 C97.6133801,27.2729818 97.3216012,27.0814047 97.0743273,26.8357895 C96.8270533,26.5901742 96.6341825,26.3003525 96.4957091,25.9663158 C96.3572357,25.632279 96.288,25.2785984 96.288,24.9052632 Z" id="Žbluňk."></path>
                </g>
            </g>
        </g>
    </g>
</svg>